<svg xmlns="http://www.w3.org/2000/svg" viewBox="0 0 64 64">
  <defs><linearGradient id="g" x1="0" y1="0" x2="1" y2="1"><stop stop-color="#d8f3ff"/><stop offset="1" stop-color="#4f9ed0"/></linearGradient></defs>
  <path d="M32 5 54 13v16c0 14-8 24-22 30C18 53 10 43 10 29V13Z" fill="#17364a" stroke="#0d2636" stroke-width="5" stroke-linejoin="round"/>
  <path d="M32 10 49 16v13c0 11-6 19-17 24-11-5-17-13-17-24V16Z" fill="url(#g)"/>
  <path d="M32 13v37M16 27h33" stroke="#edfaff" stroke-width="4" opacity=".7"/>
  <path d="m50 8 2 6 6 2-6 2-2 6-2-6-6-2 6-2Z" fill="#fff6a1" stroke="#8d681c" stroke-width="2"/>
</svg>
